<svg xmlns="http://www.w3.org/2000/svg" viewBox="0 0 400 140"><defs><style>.cls-1{fill:#e5e5e5;}.cls-2{fill:#80def9;}.cls-3{fill:#0072c6;}.cls-4,.cls-8{fill:#fff;}.cls-5{fill:#2b8fde;}.cls-6{fill:#7fba00;}.cls-7{fill:#b8d432;}.cls-8{stroke:#556a8a;stroke-miterlimit:10;stroke-width:2px;}.cls-9{fill:#00bcf2;}.cls-11,.cls-9{fill-rule:evenodd;}.cls-10{fill:#2bc7f4;}.cls-11{fill:#b2b2b2;}</style></defs><title>sql-database-sql-server</title><g id="ICONS"><rect class="cls-1" x="7" y="58" width="386" height="18"/><rect class="cls-2" x="7" y="64" width="386" height="6"/><path class="cls-3" d="M228,42.92v53.9c0,4.42-12.09,10-27,10s-27-5.58-27-10c0-.43.1-53.9.1-53.9Z"/><path class="cls-4" d="M192.56,78.89a4.42,4.42,0,0,1-1.75,3.74A7.86,7.86,0,0,1,186,84a9.21,9.21,0,0,1-4.39-.95V79.22A6.78,6.78,0,0,0,186.06,81a3.05,3.05,0,0,0,1.83-.47,1.48,1.48,0,0,0,.65-1.26,1.76,1.76,0,0,0-.62-1.34,11.42,11.42,0,0,0-2.53-1.47q-3.88-1.82-3.88-5a4.49,4.49,0,0,1,1.69-3.66,6.91,6.91,0,0,1,4.5-1.38,11.24,11.24,0,0,1,4.12.65v3.54a6.71,6.71,0,0,0-3.91-1.18,2.89,2.89,0,0,0-1.74.47,1.47,1.47,0,0,0-.64,1.25,1.78,1.78,0,0,0,.52,1.32,8.33,8.33,0,0,0,2.11,1.27A10.47,10.47,0,0,1,191.55,76,4.25,4.25,0,0,1,192.56,78.89Z"/><path class="cls-5" d="M228,42.92v53.9c0,4.42-12.09,10-27,10V42.92Z"/><path class="cls-4" d="M210.82,75.06a9.68,9.68,0,0,1-1.36,5.2,7.27,7.27,0,0,1-3.83,3.09l4.92,4.56h-5L202.07,84a8.24,8.24,0,0,1-4.08-1.2,7.49,7.49,0,0,1-2.81-3,9.35,9.35,0,0,1-1-4.31,10.09,10.09,0,0,1,1.07-4.71,7.61,7.61,0,0,1,3-3.18,8.8,8.8,0,0,1,4.45-1.11,8.19,8.19,0,0,1,4.2,1.08,7.35,7.35,0,0,1,2.88,3.07A9.69,9.69,0,0,1,210.82,75.06Zm-4,.21a6.64,6.64,0,0,0-1.13-4.08,3.64,3.64,0,0,0-3.08-1.5,3.86,3.86,0,0,0-3.18,1.5,7.3,7.3,0,0,0,0,8,3.77,3.77,0,0,0,3.11,1.49,3.82,3.82,0,0,0,3.14-1.44A6.1,6.1,0,0,0,206.8,75.27Z"/><polygon class="cls-4" points="223.74 83.66 213.63 83.66 213.63 66.69 217.45 66.69 217.45 80.56 223.74 80.56 223.74 83.66"/><path class="cls-4" d="M228,42.92c0,5.38-12,9.74-26.9,9.74s-26.9-4.36-26.9-9.74,12-9.74,26.9-9.74S228,37.54,228,42.92"/><path class="cls-6" d="M222.5,42.36c0,3.55-9.58,6.43-21.4,6.43s-21.4-2.88-21.4-6.43,9.58-6.43,21.4-6.43,21.4,2.88,21.4,6.43"/><path class="cls-7" d="M218,46.29c2.8-1.09,4.48-2.45,4.48-3.92,0-3.55-9.58-6.43-21.4-6.43s-21.4,2.88-21.4,6.43c0,1.48,1.68,2.84,4.48,3.92,3.91-1.52,10-2.5,16.91-2.5s13,1,16.91,2.5"/><path class="cls-8" d="M335,67l-4.22-.8a16.89,16.89,0,0,0-.32-2.91l3.6-2.12a1.11,1.11,0,0,0,.68-1.49l-.95-2.63a1,1,0,0,0-1.34-.52l-4.29.72-1.26-2.34,2.58-3.24a1.14,1.14,0,0,0,.06-1.51l-2-2.23a1.37,1.37,0,0,0-1.52-.06l-3.46,2.28c-.74-.49-1.62-1.13-2.36-1.63l1.11-4.21a1,1,0,0,0-.55-1.25l-2.54-1.17a1,1,0,0,0-1.39.39L314.32,46a8.75,8.75,0,0,0-2.71-.74L311.2,41a1,1,0,0,0-1-1.12l-2.89,0c-.45-.17-.93.27-1.1.71l-1,4.37a9,9,0,0,0-2.76.48l-2.11-3.9A1.54,1.54,0,0,0,299,41l-2.79,1.09a1,1,0,0,0-.66,1.18l.87,4.16c-.78.42-1.57,1.14-2.36,1.57l-3.38-2.75a1,1,0,0,0-1.37.09L288,47.58l-.74.68,0,0a1,1,0,0,0-.19,1.34l2.42,3.61a12.54,12.54,0,0,0-1.79,2.51l-4.2-1.41a1.35,1.35,0,0,0-1.41.7l-1.18,2.54a1.32,1.32,0,0,0,.54,1.55L285,61.41c-.35.9-.39,1.81-.74,2.71l-4.28.41a1.34,1.34,0,0,0-1,1.17l-.12,2.73a1.33,1.33,0,0,0,.85,1.26l4.39.66a17.59,17.59,0,0,0,.46,3.06l-3.9,2.11a1,1,0,0,0-.52,1.35l.95,2.63a1.42,1.42,0,0,0,1.34.82l4.31-1L288,81.65,285.27,85a1.44,1.44,0,0,0,.09,1.38l2,2.22a1.15,1.15,0,0,0,1.35.22l3.62-2.43c.74.49,1.62,1.14,2.36,1.63l-1.1,4.22a1,1,0,0,0,.55,1.24l2.67,1.34a1.31,1.31,0,0,0,1.39-.4l2.29-3.56c.92,0,1.81.39,2.72.43l.25,4.43a1.33,1.33,0,0,0,1.17,1l2.88.28a1.83,1.83,0,0,0,1.11-1l.81-4.23c1.07-.11,2-.37,3.06-.47l2,3.74a1,1,0,0,0,1.35.52l2.62-.95a1.24,1.24,0,0,0,.83-1.34l-.87-4.15a10.65,10.65,0,0,0,2.36-1.57l3.38,2.75a1,1,0,0,0,1.52.06l1.9-1.73.17-.15a1.07,1.07,0,0,0,.37-.77,1,1,0,0,0-.31-.75l-2.42-3.62a7.49,7.49,0,0,0,1.79-2.5l4.2,1.41a1,1,0,0,0,1.24-.55L334,79a1.54,1.54,0,0,0-.4-1.39l-3.69-2.45a7.65,7.65,0,0,0,.58-2.57l4.45-.56c.46-.13.94-.57,1-.87l.14-3A1,1,0,0,0,335,67Zm-27.75,8.11a7.29,7.29,0,1,1,7.29-7.29A7.29,7.29,0,0,1,307.23,75.13Z"/><path class="cls-9" d="M286.72,37.13l-2.27-.32c-.16-.49-.16-1-.32-1.46l1.95-1.14a.59.59,0,0,0,.32-.81l-.65-1.3c0-.32-.32-.49-.65-.49l-2.27.65A3.53,3.53,0,0,0,282,31l1.3-1.95a.49.49,0,0,0,0-.65l-1.14-1.14a.49.49,0,0,0-.65,0l-1.95,1.3c-.32-.32-.81-.49-1.14-.81l.49-2.27c.16-.16,0-.49-.32-.65l-1.3-.49a.71.71,0,0,0-.81.16l-1.14,1.95c-.49-.16-1-.16-1.62-.32l-.32-2.27a.52.52,0,0,0-.49-.49h-1.62a.52.52,0,0,0-.49.49l-.32,2.27c-.49.16-1,.16-1.46.32l-1.14-1.95c-.16-.32-.49-.32-.81-.32l-1.46.65c-.16,0-.32.32-.32.65l.65,2.27a3.54,3.54,0,0,0-1.3.81l-1.95-1.3a.49.49,0,0,0-.65,0l-1.14,1.14a.49.49,0,0,0,0,.65L262.2,31c-.32.32-.49.81-.81,1.14l-2.27-.49c-.16-.16-.49,0-.65.32l-.65,1.3c0,.32,0,.65.32.81l1.95,1.14c-.16.49-.16,1.14-.32,1.62l-2.27.32a.52.52,0,0,0-.49.49v1.62a.43.43,0,0,0,.49.49l2.27.32a4.73,4.73,0,0,0,.32,1.46l-1.95,1.14a.59.59,0,0,0-.32.81l.65,1.46c0,.16.32.32.65.32l2.27-.65a3.53,3.53,0,0,0,.81,1.3l-1.3,1.95a.72.72,0,0,0,0,.81l1.14,1c.16.16.49.32.65.16l1.95-1.46a2.91,2.91,0,0,0,1.14.81l-.49,2.27c-.16.16,0,.49.32.65l1.3.65c.32,0,.65,0,.81-.32l1.14-1.95a4.81,4.81,0,0,0,1.62.32l.32,2.27a.52.52,0,0,0,.49.49h1.62a.52.52,0,0,0,.49-.49l.32-2.27a4.75,4.75,0,0,0,1.46-.32l1.14,1.95a.59.59,0,0,0,.81.32l1.46-.65c.16,0,.32-.32.32-.65l-.65-2.27a3.54,3.54,0,0,0,1.3-.81l1.95,1.46c.16.16.49,0,.65-.16l1.14-1a.72.72,0,0,0,0-.81L282,45.89a6.87,6.87,0,0,0,.81-1.14l2.27.65a.87.87,0,0,0,.65-.49l.65-1.3c0-.32,0-.65-.32-.81l-1.95-1.14c.16-.49.16-1,.32-1.62l2.27-.32a.43.43,0,0,0,.49-.49V37.62a.52.52,0,0,0-.49-.49Zm-5.36,3.73a.75.75,0,0,1-1.14.49l-3.74-2.43c-.49-.16-.49-.65,0-1l3.74-2.43a.84.84,0,0,1,1.14.49,11.83,11.83,0,0,1,.32,2.43,9.94,9.94,0,0,1-.32,2.43Zm-1-7.3a.75.75,0,0,1-.49,1.14l-4.39,1c-.49.16-.81-.16-.65-.65l1-4.38c.16-.65.65-.81,1.14-.49a10.73,10.73,0,0,1,1.95,1.46,10.72,10.72,0,0,1,1.46,1.95ZM269.67,29a9.31,9.31,0,0,1,4.87,0,.75.75,0,0,1,.49,1.14L272.59,34c-.32.49-.81.49-1,0l-2.44-3.89a.75.75,0,0,1,.49-1.14Zm4.87,9.41a2.44,2.44,0,0,1-4.87,0,2.44,2.44,0,0,1,4.87,0ZM267.23,30a.75.75,0,0,1,1.14.49l1,4.38c.16.49-.16.81-.81.81l-4.22-1.14c-.65-.16-.81-.65-.49-1.14a5.86,5.86,0,0,1,1.46-1.95A10.73,10.73,0,0,1,267.23,30ZM262.68,40.7a9.94,9.94,0,0,1-.32-2.43,11.83,11.83,0,0,1,.32-2.43.7.7,0,0,1,1.14-.32l3.9,2.27a.62.62,0,0,1,0,1.14l-3.9,2.27c-.49.32-1,.16-1.14-.49Zm1,2.6a.72.72,0,0,1,.49-1.14L268.53,41c.49-.16.81.16.81.81l-1.14,4.38a.84.84,0,0,1-1.14.49,10.73,10.73,0,0,1-1.95-1.46c-.81-1-1.46-1.95-1.46-1.95Zm10.72,4.38a10,10,0,0,1-2.44.32,11.86,11.86,0,0,1-2.44-.32.84.84,0,0,1-.49-1.14l2.44-3.73c.32-.49.81-.49,1,0l2.44,3.73c.32.49.16,1-.49,1.14Zm2.44-1c-.49.32-1,.16-1.14-.49l-1-4.38c-.16-.49.16-.81.81-.65l4.39,1a.84.84,0,0,1,.49,1.14,10.72,10.72,0,0,1-1.46,1.95,16.83,16.83,0,0,1-2.11,1.46Z"/><path class="cls-8" d="M62,45V99h62V45Z"/><path class="cls-8" d="M99.5,41A7.9,7.9,0,0,0,93,44a7.9,7.9,0,0,0-6.5-3H69V92H86.5a6.88,6.88,0,0,1,5,2.43C92.15,95.16,93,96,93,96s.85-.84,1.5-1.57a6.88,6.88,0,0,1,5-2.43H117V41Z"/><rect class="cls-1" x="70" y="42" width="8" height="49"/><rect class="cls-1" x="108" y="42" width="8" height="49"/><path class="cls-10" d="M94,44.34V93.5l-.25.27-.75.8c-.24-.25-.51-.53-.75-.8L92,93.5V44.33Z"/><path class="cls-11" d="M257.56,86l1.37,1.92a1.73,1.73,0,0,1,0,1.65h0c-.27.27-.55.55-.55.82a1.27,1.27,0,0,1-1.37.82h-2.47c-.27,0-.55.27-.82.55v1.92c-.27.27,0,.82.55.82l2.2.55c.82.27,1.1.55,1.1,1.1a11.87,11.87,0,0,1,.27,1.37c.27.27,0,.82-.27,1.37l-1.65,1.37a.68.68,0,0,0-.27,1.1l1.1,1.65c.27,0,.82.27,1.1,0l1.92-1.1c.82-.55,1.1-.27,1.65,0,.27,0,.55.27,1.1.55.27,0,.55.55.55,1.37V106c0,.55.27.82.55.82l1.92.27a.88.88,0,0,0,.82-.82l.55-1.92A1.93,1.93,0,0,1,268,103h0c.55,0,.82,0,1.1-.27h0a2,2,0,0,1,1.65.55l1.37,1.65c.55.27.82.27,1.1,0l1.65-1.1c0-.27.27-.55,0-1.1l-1.1-1.92a.9.9,0,0,1,0-1.37v-.27c.27-.27.27-.55.55-.82h0a1.27,1.27,0,0,1,1.37-.82h2.2c.55,0,.82-.27.82-.55L279,95c0-.27-.27-.55-.55-.82l-2.2-.55c-.82-.27-1.1-.55-1.1-1.1h0c-.27-.27-.27-.55-.55-1.1h0a1.51,1.51,0,0,1,.55-1.37l1.65-1.65a.83.83,0,0,0,0-1.1L275.69,86c0-.27-.55-.55-1.1-.27l-1.65,1.37q-1.24.41-1.65,0h0c-.55-.27-.82-.55-1.1-.55v-.27c-.55,0-.82-.27-.82-1.1V82.69c.27-.27-.27-.82-.55-.82l-1.92-.27q-.41,0-.82.82l-.55,2.2a1,1,0,0,1-1.1,1.1h0a2.08,2.08,0,0,0-1.1.27h0c-.27.27-.82.27-1.37-.55l-1.65-1.65a.84.84,0,0,0-1.1,0l-1.37,1.1a1.65,1.65,0,0,0-.27,1.1Zm12.36,5.49a4.51,4.51,0,0,1-.82,6.59,4.79,4.79,0,0,1-6.59-.82,5.06,5.06,0,0,1,.82-6.59,4.76,4.76,0,0,1,6.59.82Z"/></g></svg>